inDegrees=yes
name=ik_S51_A08_T02
DataType=double
version=3
OpenSimVersion=4.3-2021-08-27-4bc7ad9
endheader
time	pelvis_tilt	pelvis_list	pelvis_rotation	pelvis_tx	pelvis_ty	pelvis_tz	hip_flexion_r	hip_adduction_r	hip_rotation_r	knee_angle_r	knee_angle_r_beta	ankle_angle_r	subtalar_angle_r	mtp_angle_r	hip_flexion_l	hip_adduction_l	hip_rotation_l	knee_angle_l	knee_angle_l_beta	ankle_angle_l	subtalar_angle_l	mtp_angle_l	lumbar_extension	lumbar_bending	lumbar_rotation	arm_flex_r	arm_add_r	arm_rot_r	elbow_flex_r	pro_sup_r	wrist_flex_r	wrist_dev_r	arm_flex_l	arm_add_l	arm_rot_l	elbow_flex_l	pro_sup_l	wrist_flex_l	wrist_dev_l
19.61999999999967	-4.331038799854334	-0.2938235092278929	20.46084199822194	0	0.9399999999999999	0	41.22316231231447	-10.18681682094026	-10.17322618153088	47.15704575111514	0.8230457138705617	0	0	0	41.22316231231447	-10.18681682094026	-10.17322618153088	47.15704575111514	0.8230457138705617	0	0	0	-4.218469164751151	0.6502314985716493	1.194476575986514	9.967871227444892	-17.44733020437211	-13.76216824376583	74.53985345674585	121.1294148505161	0	0	62.37804615549117	-15.08209613028157	-21.47938810602947	41.68370653886216	119.0420066226821	0	0
19.63999999999967	-4.326903500753136	-0.3128366839553828	20.47104721065735	0	0.9399999999999999	0	41.21896103102186	-10.18719727068271	-10.17354501745839	47.15071654811998	0.822935248439269	0	0	0	41.21896103102186	-10.18719727068271	-10.17354501745839	47.15071654811998	0.822935248439269	0	0	0	-4.221365159218573	0.6317465485606358	1.177819728216738	10.00135776538533	-17.41835922931705	-13.73239024325212	74.56451098277948	121.3179967124638	0	0	62.38765666652731	-15.09671842558595	-21.45022487162037	41.66305642978111	119.0606972076963	0	0
19.65999999999967	-4.327811772017149	-0.3406920858879033	20.4118997164566	0	0.9399999999999999	0	41.22010771955351	-10.18699969513873	-10.17342748225558	47.1523315200766	0.8229634350172393	0	0	0	41.22010771955351	-10.18699969513873	-10.17342748225558	47.1523315200766	0.8229634350172393	0	0	0	-4.231743733189675	0.6037486467825498	1.206982151401909	10.0447672844887	-17.3640769295821	-13.67238041711442	74.5608092944702	121.415464616695	0	0	62.27783248184542	-14.75986022955737	-21.39221475401386	41.79546308309478	119.2261483911981	0	0
19.67999999999967	-4.308154745784293	-0.3494694544024875	20.44587919381562	0	0.9399999999999999	0	41.22102131373827	-10.18684319700658	-10.17333418593585	47.1536242651899	0.8229859976758555	0	0	0	41.22102131373827	-10.18684319700658	-10.17333418593585	47.1536242651899	0.8229859976758555	0	0	0	-4.216965286467463	0.5952083005250991	1.121803133963706	10.02861195098507	-17.35271853210952	-13.60939025674189	74.5583985403875	121.412828931951	0	0	62.23500846944577	-14.93696036634439	-21.88375825231418	41.29007757480483	118.7302630856735	0	0
19.69999999999967	-4.301882800037961	-0.3664148056079706	20.42023798055898	0	0.9399999999999999	0	41.22900372669917	-10.18538573529429	-10.1724897311861	47.16475008491953	0.823180179862121	0	0	0	41.22900372669917	-10.18538573529429	-10.1724897311861	47.16475008491953	0.823180179862121	0	0	0	-4.216995767545359	0.5787438734232556	1.109527247493781	10.04289458944815	-17.36616139621441	-13.55768337333392	74.56811523008325	121.3435684344084	0	0	62.23214789642213	-14.98989418865508	-21.84918892604002	41.34273341368984	118.6859587677794	0	0
19.71999999999967	-4.288675886934715	-0.3690102465361046	20.3779958261884	0	0.9399999999999999	0	41.23032392625397	-10.18516077041058	-10.17235523113673	47.16661781942355	0.8232127779787692	0	0	0	41.23032392625397	-10.18516077041058	-10.17235523113673	47.16661781942355	0.8232127779787692	0	0	0	-4.205689700276464	0.5722533161144371	1.103513648216822	10.02986905678348	-17.38160135364759	-13.47869374250593	74.60349699557754	121.2817051039294	0	0	62.09555755704345	-14.66177873913645	-22.33365069965082	41.26743856371721	119.2905821481814	0	0
19.73999999999967	-4.256048811921277	-0.3743457433159488	20.33389980834064	0	0.9399999999999999	0	41.23276551265398	-10.18450325957481	-10.17202700188194	47.16973286304741	0.8232671457463487	1.210497698625862e-36	0	0	41.23276551265398	-10.18450325957481	-10.17202700188194	47.16973286304741	0.8232671457463487	1.210497698625862e-36	0	0	-4.177063675113894	0.5575834047665686	1.083125312035938	10.02051644521487	-17.37768133645022	-13.43526687404275	74.61849252156496	121.2575986065348	0	0	62.04788461372735	-14.72811588328571	-22.33668734756245	41.23660086408729	119.2996477115113	0	0
19.75999999999967	-4.219964083114753	-0.3858585051576475	20.20337984912159	0	0.9399999999999999	0	41.23367301357879	-10.18435065081148	-10.17193527584124	47.17102831572392	0.8232897556608576	0	0	0	41.23367301357879	-10.18435065081148	-10.17193527584124	47.17102831572392	0.8232897556608576	0	0	0	-4.147287074042951	0.5342182947071603	1.082542918258126	10.03492322914837	-17.33549284971377	-13.30078227209277	74.60883007556725	121.2252275764774	0	0	61.82397897993685	-14.60519832595215	-22.55767859723891	41.45429869931322	120.0463800839649	0	0
19.77999999999967	-4.214077761796756	-0.3869176961304163	20.15022198507557	0	0.9399999999999999	0	41.23397777639914	-10.18429924292491	-10.17190440856648	47.17146209434341	0.8232973265259925	0	0	0	41.23397777639914	-10.18429924292491	-10.17190440856648	47.17146209434341	0.8232973265259925	0	0	0	-4.142129978201815	0.5313387702933161	1.080874788030001	10.0895377665277	-17.35377781550995	-13.28484781713237	74.6103523411182	121.2374507568615	0	0	61.74530543987607	-14.46326536878706	-22.49761760944997	41.44560258908369	120.0740657915997	0	0
19.79999999999967	-4.200677454295123	-0.3875232088203703	20.09950089375169	0	0.9399999999999999	0	41.23442943295802	-10.18422251925737	-10.17185844870753	47.17210067801187	0.8233084719135566	0	0	0	41.23442943295802	-10.18422251925737	-10.17185844870753	47.17210067801187	0.8233084719135566	0	0	0	-4.129792376994928	0.5267124125611906	1.073905031996604	10.10131650447323	-17.34467759712769	-13.28826191338572	74.5818763058585	121.2402334759217	0	0	61.67788258853331	-14.32588179441252	-22.49649953706062	41.46867635473104	120.1480050593374	0	0
19.81999999999967	-4.16911927784648	-0.3749375683787723	20.01357744214552	0	0.9399999999999999	0	41.23556386403938	-10.18403031137307	-10.17174319592143	47.17370759695516	0.8233365179399297	0	0	0	41.23556386403938	-10.18403031137307	-10.17174319592143	47.17370759695516	0.8233365179399297	0	0	0	-4.095821956803092	0.5284664768145794	1.065184927130864	10.05363761644118	-17.32572642243328	-13.29443364893919	74.51831949712621	121.2767749008735	0	0	61.55719797082265	-14.30953606684544	-22.72334873961553	41.21182464679956	119.7768786778805	0	0
19.83999999999967	-4.152083428180373	-0.3747766104679101	19.98588855060169	0	0.9399999999999999	0	41.23681769578532	-10.18348518198216	-10.17150546283175	47.17502173619244	0.8233594539964499	0	0	0	41.23681769578532	-10.18348518198216	-10.17150546283175	47.17502173619244	0.8233594539964499	0	0	0	-4.079832339296368	0.523694725981951	1.053945736798065	10.04025969618419	-17.2826456846266	-13.29371539953772	74.49161501149041	121.3007076920014	0	0	61.53636058554871	-14.34294093264149	-22.71778451838296	41.20940270082633	119.7720933667448	0	0
19.85999999999967	-4.131483067395231	-0.3859496750786249	19.98935074734303	0	0.9399999999999999	0	41.23112210694337	-10.18489056746935	-10.17223414337686	47.16760665266665	0.8232300363746144	0	0	0	41.23112210694337	-10.18489056746935	-10.17223414337686	47.16760665266665	0.8232300363746144	0	0	0	-4.064248494408861	0.5074831461156791	1.031369586056679	10.04197618960814	-17.18383588108265	-13.31691141527069	74.39130701524293	121.4034158320059	0	0	61.48881356306701	-14.36519173650133	-22.82292089603547	41.08606874119128	120.0130263163908	0	0
19.87999999999967	-4.133547779427006	-0.3835177755213553	19.98785286942225	0	0.9399999999999999	0	41.23157065901539	-10.1845970208928	-10.17211772583682	47.1679725084776	0.8232364217631031	0	0	0	41.23157065901539	-10.1845970208928	-10.17211772583682	47.1679725084776	0.8232364217631031	0	0	0	-4.065354466704624	0.5103477995154156	1.033490275007351	10.0757560812403	-17.17321049201107	-13.32589086769762	74.36834736315474	121.4182445612251	0	0	61.48328609456285	-14.36739201762345	-22.82323846249471	41.09171104876782	120.0108597887838	0	0
19.89999999999966	-4.123668304299756	-0.3958640932204075	19.96623430214228	0	0.9399999999999999	0	41.23493686565302	-10.18381026293465	-10.17170440869494	47.17242958572901	0.823314212436156	0	0	0	41.23493686565302	-10.18381026293465	-10.17170440869494	47.17242958572901	0.823314212436156	0	0	0	-4.060321582998997	0.4963151613428785	1.023571522389906	10.10722847033178	-17.15617214196779	-13.30136745112834	74.35812862212134	121.4110223621374	0	0	61.4661351196844	-14.40337595632234	-22.8152742891932	41.11244502085859	119.9960422958424	0	0
19.91999999999966	-4.096447610071046	-0.4257862947352803	19.9128447279713	0	0.9399999999999999	0	41.23671275147878	-10.18351599109855	-10.17152651563253	47.17499279096556	0.8233589488069381	0	0	0	41.23671275147878	-10.18351599109855	-10.17152651563253	47.17499279096556	0.8233589488069381	0	0	0	-4.045240356720027	0.4622512295771661	0.9799579201986873	10.13567545033816	-17.05263576828014	-13.20554530834102	74.25202882244416	121.4991974628214	0	0	61.44676350536196	-14.53652570149783	-22.87186354322747	40.44373833873515	120.2349568552782	0	0
